Coordinates
version=1
nRows=8
nColumns=40
inDegrees=yes

Units are S.I. units (second, meters, Newtons, ...)
Angles are in degrees.

endheader
time	pelvis_tilt	pelvis_list	pelvis_rotation	pelvis_tx	pelvis_ty	pelvis_tz	hip_flexion_r	hip_adduction_r	hip_rotation_r	knee_angle_r	knee_angle_r_beta	ankle_angle_r	subtalar_angle_r	mtp_angle_r	hip_flexion_l	hip_adduction_l	hip_rotation_l	knee_angle_l	knee_angle_l_beta	ankle_angle_l	subtalar_angle_l	mtp_angle_l	lumbar_extension	lumbar_bending	lumbar_rotation	arm_flex_r	arm_add_r	arm_rot_r	elbow_flex_r	pro_sup_r	wrist_flex_r	wrist_dev_r	arm_flex_l	arm_add_l	arm_rot_l	elbow_flex_l	pro_sup_l	wrist_flex_l	wrist_dev_l
      2.23000000	      4.52680581	     -3.88310269	     -4.61423447	      0.79139073	      0.89261535	     -1.01341105	     -9.54456455	      5.65764068	    -12.42492705	    -19.06180105	     -0.33269119	     12.73758898	      5.79252076	     -6.14540014	     19.95395720	      5.62360058	     12.89867055	    -18.24438521	     -0.31842459	     -3.22673983	     -0.53889734	     -9.42425792	    -10.85488929	      4.03957232	      4.36466514	     15.24090573	    -12.95230292	     17.09997153	     25.95219819	     89.95437384	      0.00000000	      0.00000000	     -5.30027389	      6.36210594	    -14.02352532	     14.54611365	     89.95437384	      0.00000000	      0.00000000
      2.24000000	      4.21320732	     -3.92892401	     -4.80847819	      0.80094433	      0.89127508	     -1.01344289	     -9.68383748	      5.56963658	    -12.28045514	    -19.44209113	     -0.33932850	     12.77960138	      5.86271890	     -6.32880579	     20.07357062	      5.61485766	     13.39173341	    -16.03086557	     -0.27979139	     -3.30017209	     -1.49150982	     -9.35477071	    -10.55644103	      4.06681102	      4.44538496	     15.34747618	    -12.98765931	     17.13953271	     26.45247070	     89.95437384	      0.00000000	      0.00000000	     -5.72158653	      6.26965718	    -14.00826296	     14.38151116	     89.95437384	      0.00000000	      0.00000000
      2.25000000	      3.91049403	     -3.94917630	     -5.06749604	      0.81066275	      0.88998441	     -1.01373922	     -9.82081308	      5.40771917	    -11.99182065	    -19.87356376	     -0.34685912	     12.74095659	      5.94465744	     -6.44254589	     20.13384856	      5.55483878	     13.67670273	    -14.06127345	     -0.24541552	     -2.91828193	     -2.36507211	     -9.39212888	    -10.25944589	      4.11701007	      4.53189232	     15.44693824	    -13.04308757	     17.16511066	     26.88377292	     89.95437384	      0.00000000	      0.00000000	     -6.14550774	      6.10307373	    -14.02375926	     14.17929755	     89.95437384	      0.00000000	      0.00000000
      2.26000000	      3.93451631	     -3.73355453	     -5.47751677	      0.82079244	      0.88927506	     -1.01379706	    -10.29823993	      4.88846611	    -11.81355062	    -20.37352525	     -0.35558510	     12.84032004	      6.03950113	     -6.70316236	     19.69886462	      5.31123701	     14.50831607	    -12.23915100	     -0.21361348	     -3.05949065	     -3.22829298	     -9.36389738	    -10.27846871	      3.83445228	      4.76883154	     15.49333452	    -13.06229203	     17.24604795	     27.28737319	     89.95437384	      0.00000000	      0.00000000	     -6.46811433	      6.01392281	    -14.02775816	     13.93632307	     89.95437384	      0.00000000	      0.00000000
      2.27000000	      3.65453152	     -3.78515254	     -5.68902309	      0.83084228	      0.88811884	     -1.01397007	    -10.44920411	      4.78184051	    -11.48397290	    -20.81254270	     -0.36324740	     12.60784119	      6.11699428	     -6.76443868	     19.83433587	      5.33276292	     14.56087969	    -11.26608519	     -0.19663028	     -2.66044601	     -3.74611684	     -9.40133458	     -9.96821856	      3.89375480	      4.77843184	     15.54049759	    -13.00341220	     17.29326531	     27.54816657	     89.95437384	      0.00000000	      0.00000000	     -6.83501834	      5.90978242	    -14.09733926	     13.73619079	     89.95437384	      0.00000000	      0.00000000
      2.28000000	      3.42197132	     -3.81593259	     -5.92081297	      0.84106255	      0.88704789	     -1.01405545	    -10.65255472	      4.63922586	    -11.20212233	    -21.29021082	     -0.37158428	     12.44507079	      6.03793328	     -6.75544847	     19.96730320	      5.37793285	     14.63822421	    -10.84002235	     -0.18919408	     -2.41241580	     -3.91128855	     -9.35782401	     -9.70032610	      3.92375031	      4.79741850	     15.52603857	    -12.93443946	     17.30181784	     27.78421702	     89.95437384	      0.00000000	      0.00000000	     -7.16836063	      5.80938724	    -14.15139056	     13.53613292	     89.95437384	      0.00000000	      0.00000000
      2.29000000	      3.20997291	     -3.77762527	     -6.06618807	      0.85160172	      0.88602666	     -1.01428234	    -10.86113984	      4.42214221	    -10.97953691	    -21.80427601	     -0.38055641	     12.15210779	      5.85998391	     -6.64836196	     20.19573805	      5.33095111	     14.43970925	    -11.13007864	     -0.19425652	     -2.39125491	     -3.82687835	     -9.19630969	     -9.42182615	      3.88653241	      4.71263712	     15.38965375	    -12.84703720	     17.25182052	     28.11250779	     89.95437384	      0.00000000	      0.00000000	     -7.59286642	      5.81238288	    -14.12681894	     13.62587266	     89.95437384	      0.00000000	      0.00000000
      2.30000000	      3.06444251	     -3.67996140	     -6.52205380	      0.86235963	      0.88527439	     -1.01431237	    -10.99860917	      4.07140539	    -10.30179232	    -22.57534957	     -0.39401418	     11.77373604	      5.74851992	     -6.60916252	     19.95922626	      5.23556828	     14.32931696	    -11.26722585	     -0.19665019	     -1.97242384	     -3.95962544	     -9.17053761	     -9.15634940	      3.77716305	      4.91095098	     15.32807719	    -12.72809899	     17.34819368	     28.06389123	     89.95437384	      0.00000000	      0.00000000	     -7.69002744	      5.62314797	    -14.32019101	     12.97826630	     89.95437384	      0.00000000	      0.00000000
